<svg xmlns="http://www.w3.org/2000/svg" width="27.523" height="27.523" viewBox="0 0 27.523 27.523"><defs><style>.a{fill:#ff8000;stroke:#ff8000;}.a,.b{stroke-width:0.5px;}.b{fill:#fff;stroke:#fff;}</style></defs><g transform="translate(0.25 0.25)"><g transform="translate(6.416 3.395)"><path class="a" d="M141.4,64.627a1.018,1.018,0,0,0-1.44,0L127.744,76.811l-4.408-4.788a1.018,1.018,0,0,0-1.5,1.38l5.126,5.567a1.017,1.017,0,0,0,.728.328h.022a1.02,1.02,0,0,0,.719-.3L141.4,66.067A1.018,1.018,0,0,0,141.4,64.627Z" transform="translate(-121.568 -64.327)"/></g><path class="b" d="M26,12.493a1.018,1.018,0,0,0-1.018,1.018A11.475,11.475,0,1,1,13.512,2.037a1.018,1.018,0,1,0,0-2.037A13.512,13.512,0,1,0,27.023,13.512,1.018,1.018,0,0,0,26,12.493Z"/></g></svg>