<svg xmlns="http://www.w3.org/2000/svg" width="17.665" height="17.665" viewBox="0 0 17.665 17.665"><defs><style>.a{fill:#ff8000;stroke:#ff8000;}.a,.b{stroke-width:0.5px;}.b{fill:#fff;stroke:#fff;}</style></defs><g transform="translate(0.25 0.25)"><g transform="translate(4.075 2.157)"><path class="a" d="M134.166,64.517a.647.647,0,0,0-.915,0l-7.761,7.74-2.8-3.041a.647.647,0,0,0-.952.876l3.256,3.536a.646.646,0,0,0,.462.209h.014a.648.648,0,0,0,.457-.189l8.237-8.216A.647.647,0,0,0,134.166,64.517Z" transform="translate(-121.568 -64.327)"/></g><path class="b" d="M16.518,7.935a.647.647,0,0,0-.647.647A7.288,7.288,0,1,1,8.582,1.294.647.647,0,1,0,8.582,0a8.582,8.582,0,1,0,8.582,8.582A.647.647,0,0,0,16.518,7.935Z"/></g></svg>