<svg xmlns="http://www.w3.org/2000/svg" xmlns:xlink="http://www.w3.org/1999/xlink" width="533" height="1104.168" viewBox="0 0 533 1104.168"><defs><style>.a{opacity:0.094;}.b{fill:#f58466;}.c{fill:#e05b41;}.d{fill:#fed09e;}.e,.p{fill:#212a3c;}.e{opacity:0.2;}.f,.g,.l{opacity:0.3;}.f{fill:url(#a);}.g{fill:#fff;}.h{opacity:0.09;}.i{fill:#34b1e4;}.j{fill:#d7df23;}.k{fill:#f9f98f;}.l{fill:url(#b);}.m{fill:#e6e7e8;}.n{fill:#d1d3d4;}.o{fill:#a7a9ac;}.p{opacity:0.1;}.q{opacity:0.5;fill:url(#c);}</style><linearGradient id="a" x1="-0.95" y1="-1.624" x2="-0.62" y2="-0.914" gradientUnits="objectBoundingBox"><stop offset="0" stop-color="#fff"/><stop offset="1" stop-color="#fff" stop-opacity="0"/></linearGradient><linearGradient id="b" x1="-1.187" y1="-1.983" x2="-0.856" y2="-1.273" xlink:href="#a"/><linearGradient id="c" x1="-1.778" y1="-1.649" x2="-1.447" y2="-0.939" xlink:href="#a"/></defs><g transform="translate(-999.842 -1371.832)"><g class="a" transform="translate(1067.22 2262.78)"><circle class="b" cx="68.406" cy="68.406" r="68.406" transform="matrix(0.23, -0.973, 0.973, 0.23, 31.779, 181.787)"/><path class="c" d="M126.87,162.306c-9.606,0-20.48-.422-21.641,0s-5.279,3.168-14.569,3.168-18.158-4.012-23.12-4.75c-4.082-.61-12.232-2.145-16.112-2.319a68.641,68.641,0,0,0,25.338,29.848c10.213.25,21.439.437,26.773.234,7.708-.293,35.166-1.71,51.183-2.545A68.692,68.692,0,0,0,174.5,162.991C164.822,162.821,134.889,162.306,126.87,162.306Z"/><path class="c" d="M50.356,106.038h.61s9.078,1.371,9.923,1.371H73.135l10.241-.211,35.788-.738L131.41,105.4s15.73-1.054,16.68-1.054,18.053,1.689,18.58,1.689,6.44-.212,6.44-.212l4.233-.918A68.356,68.356,0,0,0,169.16,90.38c-1.272-.111-2.5-.242-3.44-.389-3.378-.528-9.712,0-12.774.317S108.5,90.2,108.5,90.2s-3.378.528-4.223.633S92.56,90.413,92.032,90.2s-7.918-.951-8.34-1.057-7.073-.632-8.234-1.16a15.4,15.4,0,0,0-4.012-.634L60.211,88.783A68.333,68.333,0,0,0,50.356,106.038Z"/><path class="d" d="M56.279,111.7h3.66L78.8,109.45s14.357-1.406,16.609-1.689,7.883-.281,7.883-.281,26.182-.282,27.589-.282,18.581-1.126,18.581-1.126,10.416.283,11.823.283,11.262,1.406,12.95,1.689c.909.15,2.874.383,4.5.566q-.993-2.878-2.23-5.634H147.21l-4.223-.282s-7.6-.563-10.416-.844-7.319,0-8.726,0H111.176c-1.69,0-18.58.563-20.27.844s-7.038.563-9.008.844-5.913,0-8.446,0a43.393,43.393,0,0,0-4.786.282l-8.445.845-9.366.108q-1.044,2.521-1.887,5.144C52.12,110.835,56.279,111.7,56.279,111.7Z"/><path class="d" d="M148.618,182.731s-14.357,1.409-16.609,1.69-7.883.281-7.883.281-26.182.281-27.589.281-18.58,1.127-18.58,1.127-2.055-.055-4.463-.117q2.308,1.7,4.759,3.213h1.956l4.223.283s7.6.563,10.416.844,7.319,0,8.727,0h12.668c1.69,0,18.58-.563,20.27-.844s7.038-.564,9.008-.845a37.843,37.843,0,0,1,5.356-.069,68.7,68.7,0,0,0,9.427-7.238Z"/><path class="d" d="M171.176,160.5H160.164c-2.259,0-9.317-.221-15.529-.661-4.552-.323-9.088-.835-13.641-1.15-4.243-.292-8.492-.5-12.741-.7-14.607-.681-29.447-2.953-44.063-2.289-7.853.358-15.71.557-23.566.788q.594,1.472,1.253,2.907h1.844c.847,0,2.824.662,5.365,1.1,3.863.67,7.938,1.061,11.657,2.351,7.47,2.592,14.894,6.607,23.052,5.8a57.391,57.391,0,0,0,9.894-1.422,75.028,75.028,0,0,1,16.155-3.06c5.529-.33,11.069-.147,16.6-.147h9.318c2.823,0,12.987.661,15.246.661a39.517,39.517,0,0,1,7.906.882A17.707,17.707,0,0,0,172.8,166c1.068-1.784,2.063-3.616,2.968-5.5Zm-80.5,4.341c-3.334-.113-6-1.433-5.944-2.95s2.793-2.659,6.127-2.547,6,1.432,5.944,2.95S94.008,164.956,90.674,164.844Z"/><path class="d" d="M57.969,91.808c.453-.028.921-.059,1.407-.093,3.941-.281,16.047,0,19.144,0s18.861,1.126,22.24,1.126,17.735.282,23.647.282,14.639,2.533,32.093,2.816c5.643.089,11.252,0,16.265-.154a68.723,68.723,0,0,0-11.337-14.2l-.142-.009a105.881,105.881,0,0,0-16.328.845c-8.164.844-16.328-.563-24.492-1.126-13.232-1.126-27.589-2.253-40.821-1.126-4.408.383-8.783,1-13.158,1.636A68.719,68.719,0,0,0,57.969,91.808Zm41.226-8.971c7.775.26,14.021,2.145,13.953,4.211s-6.428,3.53-14.2,3.269-14.021-2.144-13.952-4.21S91.421,82.577,99.195,82.837Z"/><path class="d" d="M49.523,130.565c.844,0,4.5.563,6.756.844,6.988.873,14.085.342,21.045,1.486,5.78.95,11.791,1.183,17.5,2.346,4.049.824,7.812,2.754,11.7,4.1a63.77,63.77,0,0,0,34.25,1.745c5.5-1.2,10.714-3.354,16.1-4.946,5.331-1.577,10.736-2.091,16.233-2.755h9.307c.028-.815.062-1.63.062-2.453,0-.877-.034-1.746-.067-2.616-5.8-.489-11.578-.638-17.406-.9-7.976-.355-14.81-4.016-22.193-6.563a59.466,59.466,0,0,0-18.152-3.6c-9.866-.2-18.391,4.62-27.84,6.6-7.088,1.483-14.568.833-21.76.805-8.982-.034-17.964,0-26.947,0H45.965c-.182,2-.287,4.016-.293,6.06C47.652,130.628,49.239,130.565,49.523,130.565Zm76.813-7.034c8.7.29,15.649,3.739,15.518,7.7s-7.295,6.938-16,6.647-15.649-3.738-15.516-7.7S117.634,123.239,126.336,123.531Z"/><path class="e" d="M60.1,172.972A68.411,68.411,0,0,0,169.2,90.423C152.705,116.417,106.171,181.747,60.1,172.972Z"/><path class="e" d="M63.609,177.1A68.4,68.4,0,0,0,181.94,122.412C163.565,148.882,120.888,196.98,63.609,177.1Z"/><path class="f" d="M133.668,77.7c9.1,14.989-.693,37.569-21.878,50.43s-45.734,11.139-54.835-3.85.693-37.568,21.876-50.429S124.565,62.715,133.668,77.7Z"/><path class="g" d="M114.008,76.028c5.435,8.952-1.345,23-15.145,31.381s-29.395,7.915-34.829-1.037,1.342-23,15.143-31.383S108.572,67.073,114.008,76.028Z"/></g><g class="h" transform="translate(1178.545 1937.442)"><g transform="translate(203.297 75.64)"><path class="i" d="M354.3,151.14a75.5,75.5,0,1,1-75.5-75.5A75.5,75.5,0,0,1,354.3,151.14Z" transform="translate(-203.297 -75.64)"/><g transform="translate(0.287 1.456)"><path class="j" d="M283.468,167.241c2.315-4.119-.256-12.613-.256-14.672s-11.585-7.722-14.415-8.752-4.117.516-4.117.516-16.732,4.889-18.792,8.236-15.186-3.347-15.7-6.434-3.6-12.357-3.859-13.387-13.9-10.553-15.444-10.811c-.726-.121-3.892,1.006-7.418,2.773a75.5,75.5,0,0,0,65.861,68.542c.256-4.435-.412-8.566-.015-13.915.516-6.95,1.288-3.861,6.435-6.432S281.153,171.36,283.468,167.241Z" transform="translate(-203.465 -44.305)"/><path class="j" d="M258.927,156.136c-1.035,2.337-.941,4.307,1.878,5.17,2.064.634,3.922-.044,5.926-.511,1.743-.407,4.086.08,5.506-1.155,4.285-3.724.77-7.131-2.822-9.7-1.134-.808-2.313-1.544-3.449-2.346C260.99,144.095,260.116,153.45,258.927,156.136Z" transform="translate(-164.606 -26.672)"/><path class="j" d="M275.008,82.085c-4.314,6.289-7.9,14.42-4.628,21.49,6.435,13.9,16.73,8.236,7.978,28.313s-15.184,11.326-14.157,31.147,4.635,31.66,11.327,31.4,8.494-27.028,26-24.455a27.815,27.815,0,0,1,5.518,1.385,75.514,75.514,0,0,0-32.035-89.283Z" transform="translate(-160.518 -72.53)"/><path class="j" d="M222.3,104.192c6.176,3.6,7.464,3.345,15.444,14.415s-2.574,13.64-5.149,23.164-2.059,16.216,1.546,19.3,25.74,1.8,24.2-5.662-1.8-17.506-1.8-26.256,6.435-3.087,14.929-6.692,6.95-18.792,6.95-21.621-6.95-13.643-12.1-16.732a75.375,75.375,0,0,1-9.282-7.621,75.456,75.456,0,0,0-43.885,26.541C215.651,103.694,218.936,102.23,222.3,104.192Z" transform="translate(-196.606 -76.492)"/><path class="j" d="M271.844,105.51a7.62,7.62,0,0,0-6.386-2.862,8.842,8.842,0,0,0-2.5.408c-3.6,1.15-5.814,4.867-6.256,8.518-.379,3.108,1.286,14.157,1.543,15.187a20.675,20.675,0,0,1,.256,5.921c-.138,1.114,2.978-.432,3.3-.589,1.99-.964,3.929-2.019,5.1-3.97,1.295-2.163,1.561-4.792,2.534-7.095C271.408,116.353,275.423,110.415,271.844,105.51Z" transform="translate(-165.796 -57.965)"/></g><g transform="translate(40.269 10.716)"><path class="k" d="M292.344,133.273c1.739-.692,2.844-1.162,3.335-3.109.987-3.9-1.134-8.281-3.963-10.881a7.425,7.425,0,0,0-6.039-2.031,12.174,12.174,0,0,0-2.176.513,16.356,16.356,0,0,0-7.857,5.627c-1.78,2.545-1.329,5.713-1.4,8.656q-.077,3.219-.378,6.425c-.186,2.021-2.434,5.552.248,6.683,5.631,2.378,7.657-3.849,10.947-7.312A20.579,20.579,0,0,1,292.344,133.273Z" transform="translate(-194.327 -56.922)"/><path class="k" d="M276.555,85.579a21.76,21.76,0,0,0-2.6,6.28c-.912,3.711,2.069,8.574,5.523,9.9,2.933,1.126,1.942,3.88,1.416,6.319-.767,3.567-2.074,7.088-2.074,10.778,0,4.076.22,6.046,4.8,6.218,1.915.072,4.008.278,4.773-1.821.847-2.317.4-5.25-.044-7.614a7.559,7.559,0,0,1,.511-4.761,17.357,17.357,0,0,0,1.288-5.275c0-1.418-1.543-3.6-2.187-5.537-.507-1.52-.3-1.613-.625-3.723A75.934,75.934,0,0,0,276.555,85.579Z" transform="translate(-193.629 -79.315)"/><path class="k" d="M253.257,140.513c-2.287-.1-4.356,1.211-6.473,1.869-1.372.422-2.75.82-4.124,1.232-1.157.347-2.308.709-3.449,1.11-4.99,1.755-9.816,4.43-12.254,9.352-.941,1.895,5.957,2.255,6.714,2.306,3.543.237,6.951-.745,10.419-1.273,3.622-.552,7.3-.673,10.9-1.343a7.322,7.322,0,0,0,6.271-5.6C262.443,143.541,257.33,140.7,253.257,140.513Z" transform="translate(-226.868 -40.405)"/><path class="k" d="M235.687,97.625c-.726-.188-1.867-1.174-2.573-1.124-3.757.261-1.285,6.338.024,7.73,2.262,2.4,4.947,5.1,8.344,2.554,1.377-1.032,2.788.571,3.957,1.2.56.3,4.375,2.352,4.971,1.884,1.587-1.24,3.5-2.416,4.63-4.114,2.634-3.957,1.915-9.543.343-13.73-1.626-4.332-6.227-7.836-10.332-9.673a5.043,5.043,0,0,0-2.342-.434,4.36,4.36,0,0,0-3.972,5.819,28.6,28.6,0,0,0,2.575,5.491c1.546,2.4,0,2.745-.171,3.776C240.88,98.56,236.635,97.871,235.687,97.625Z" transform="translate(-223.855 -81.912)"/></g></g><g transform="translate(220.212 105.965)"><path class="e" d="M213.2,186.178A75.5,75.5,0,0,0,332.284,93.391C312.217,124.311,262.946,190.854,213.2,186.178Z" transform="translate(-213.198 -93.391)"/><path class="e" d="M216.412,176.913a75.492,75.492,0,0,0,128.594-53.665,76.205,76.205,0,0,0-.453-8.234C322.909,145.076,277.165,193.736,216.412,176.913Z" transform="translate(-210.921 -78.074)"/></g><path class="l" d="M297.819,92.413c10.045,16.544-.765,41.466-24.146,55.659s-50.477,12.3-60.521-4.247.764-41.466,24.143-55.661S287.774,75.869,297.819,92.413Z" transform="translate(4.321 2.129)"/><path class="g" d="M272.184,88.841c6,9.88-1.485,25.385-16.715,34.634s-32.444,8.737-38.444-1.143,1.481-25.39,16.713-34.639S266.183,78.958,272.184,88.841Z" transform="translate(8.258 3.852)"/></g><g class="h" transform="translate(816.329 1183.591)"><g transform="translate(183.513 188.241)"><circle class="m" cx="122.922" cy="122.922" r="122.922" transform="matrix(0.973, -0.23, 0.23, 0.973, 0, 56.483)"/><g transform="translate(51.771 54.739)"><path class="n" d="M241.37,273.034a30.258,30.258,0,1,0,30.261-30.261A30.261,30.261,0,0,0,241.37,273.034Z" transform="translate(-130.609 -144.322)"/><path class="o" d="M283.738,231.727a17.02,17.02,0,1,0-17.018,17.021A17.017,17.017,0,0,0,283.738,231.727Z" transform="translate(-115.54 -195.09)"/><path class="n" d="M265.9,271.859a43.366,43.366,0,0,0,28.412,40.669,122.882,122.882,0,0,0,6.576-83.217A43.387,43.387,0,0,0,265.9,271.859Z" transform="translate(-86.237 -168.677)"/><path class="n" d="M215.656,256.4a6.857,6.857,0,1,0-6.857,6.857A6.855,6.855,0,0,0,215.656,256.4Z" transform="translate(-201.942 -132.063)"/><path class="n" d="M273.088,238.1a6.856,6.856,0,1,0-6.854,6.854A6.853,6.853,0,0,0,273.088,238.1Z" transform="translate(-98.033 -165.176)"/><path class="n" d="M209.353,273.932a17.021,17.021,0,1,0,17.018-17.021A17.014,17.014,0,0,0,209.353,273.932Z" transform="translate(-188.534 -118.744)"/><path class="n" d="M232.658,218.6a10.872,10.872,0,1,0,10.872-10.872A10.872,10.872,0,0,0,232.658,218.6Z" transform="translate(-146.371 -207.727)"/><path class="o" d="M305.291,305.426a43.35,43.35,0,0,0-85.119-1.728,122.9,122.9,0,0,0,85.119,1.728Z" transform="translate(-168.96 -96.136)"/><path class="o" d="M226.333,269.71a23.166,23.166,0,1,0-23.167-23.167A23.17,23.17,0,0,0,226.333,269.71Z" transform="translate(-199.727 -179.411)"/><path class="n" d="M245.789,236.965a6.857,6.857,0,1,0-6.857,6.854A6.855,6.855,0,0,0,245.789,236.965Z" transform="translate(-147.427 -167.23)"/><path class="n" d="M236.213,249.886a10.869,10.869,0,1,0,10.869,10.869A10.87,10.87,0,0,0,236.213,249.886Z" transform="translate(-159.618 -131.453)"/></g></g><g transform="translate(241.071 263.8)"><path class="p" d="M393.693,215.138C359.848,266.667,283.266,368.228,204,370.81A122.9,122.9,0,0,0,393.693,215.138Z" transform="translate(-204.002 -215.138)"/><path class="p" d="M407.292,238.233C371.22,286.767,301.316,357.922,209.365,342.842a122.9,122.9,0,0,0,198.172-97.17C407.537,243.172,407.441,240.694,407.292,238.233Z" transform="translate(-194.299 -173.355)"/></g><path class="q" d="M342.024,221.975c16.251,26.763-1.233,67.075-39.059,90.037s-81.658,19.889-97.9-6.877S206.3,238.063,244.12,215.1,325.778,195.214,342.024,221.975Z" transform="translate(28.004 20.739)"/><path class="g" d="M297.036,214.65c9.7,15.987-2.4,41.07-27.038,56.035s-52.484,14.127-62.187-1.857,2.4-41.07,27.036-56.029S287.33,198.666,297.036,214.65Z" transform="translate(37.896 25.069)"/></g></g></svg>